<svg width="16" height="15" viewBox="0 0 16 15" fill="none" xmlns="http://www.w3.org/2000/svg">
<g id="Frame">
<path id="Vector" d="M12.8415 13.785L3.31353 13.785C2.98465 13.785 2.71803 13.5184 2.71803 13.1895L2.71803 2.47053C2.71803 2.14165 2.98465 1.87503 3.31353 1.87503L12.8415 1.87503C13.1704 1.87503 13.437 2.14165 13.437 2.47053L13.437 13.1895C13.437 13.5184 13.1704 13.785 12.8415 13.785ZM12.246 12.594L12.246 3.06603L3.90903 3.06603L3.90903 12.594L12.246 12.594ZM6.29103 4.25703L6.29103 5.44803C6.29103 6.43468 7.09086 7.23453 8.07754 7.23453C9.06416 7.23453 9.86404 6.43468 9.86404 5.44803L9.86404 4.25703L11.055 4.25703L11.055 5.44803C11.055 7.09244 9.72195 8.42552 8.07754 8.42552C6.4331 8.42552 5.10003 7.09244 5.10003 5.44803L5.10003 4.25703L6.29103 4.25703Z" fill="#878787"/>
</g>
</svg>
