<svg width="17" height="18" viewBox="0 0 17 18" fill="none" xmlns="http://www.w3.org/2000/svg">
<g id="ri:equalizer-fill">
<path id="Vector" d="M4.2933 13.0071C4.43171 12.6148 4.68839 12.2751 5.02795 12.0349C5.36752 11.7946 5.77325 11.6656 6.18922 11.6656C6.6052 11.6656 7.01093 11.7946 7.35049 12.0349C7.69006 12.2751 7.94673 12.6148 8.08514 13.0071L14.8984 13.0071L14.8984 14.347L8.08514 14.347C7.94673 14.7392 7.69006 15.0789 7.35049 15.3192C7.01093 15.5594 6.6052 15.6885 6.18922 15.6885C5.77325 15.6885 5.36752 15.5594 5.02795 15.3192C4.68839 15.0789 4.43171 14.7392 4.2933 14.347H1.49966L1.49966 13.0071H4.2933ZM8.31292 8.31753C8.45133 7.92526 8.70801 7.58558 9.04757 7.34531C9.38714 7.10504 9.79287 6.97601 10.2088 6.97601C10.6248 6.97601 11.0305 7.10504 11.3701 7.34531C11.7097 7.58558 11.9664 7.92526 12.1048 8.31753H14.8984L14.8984 9.6574H12.1048C11.9664 10.0497 11.7097 10.3894 11.3701 10.6296C11.0305 10.8699 10.6248 10.9989 10.2088 10.9989C9.79287 10.9989 9.38714 10.8699 9.04757 10.6296C8.70801 10.3894 8.45133 10.0497 8.31292 9.6574L1.49966 9.6574L1.49966 8.31753L8.31292 8.31753ZM4.2933 3.62797C4.43171 3.2357 4.68839 2.89602 5.02795 2.65575C5.36752 2.41548 5.77325 2.28645 6.18922 2.28645C6.6052 2.28645 7.01093 2.41548 7.35049 2.65575C7.69006 2.89602 7.94673 3.2357 8.08514 3.62797L14.8984 3.62797V4.96784L8.08514 4.96784C7.94673 5.36011 7.69006 5.69979 7.35049 5.94006C7.01093 6.18033 6.6052 6.30936 6.18922 6.30936C5.77325 6.30936 5.36752 6.18033 5.02795 5.94006C4.68839 5.69979 4.43171 5.36011 4.2933 4.96784L1.49966 4.96784L1.49966 3.62797L4.2933 3.62797Z" fill="#878787"/>
</g>
</svg>
