<svg width="17" height="17" viewBox="0 0 17 17" fill="none" xmlns="http://www.w3.org/2000/svg">
<rect width="17" height="17" fill="#1E1E1E"/>
<g filter="url(#filter0_d_0_1)">
<g clip-path="url(#clip0_0_1)">
<rect x="-43" y="-660" width="334.968" height="725.318" rx="17.865" fill="white"/>
<mask id="path-2-inside-1_0_1" fill="white">
<path d="M-43 -7.03485L291.968 -7.03485V42.9871L-43 42.9871L-43 -7.03485Z"/>
</mask>
<path d="M-43 -7.03485L291.968 -7.03485V42.9871L-43 42.9871L-43 -7.03485Z" fill="white"/>
<path d="M-43 -6.1416L291.968 -6.1416V-7.9281L-43 -7.9281V-6.1416Z" fill="#D6D6D6" mask="url(#path-2-inside-1_0_1)"/>
<path d="M14.1455 5.47744L9.75738 1.96697C8.89986 1.28364 7.55998 1.27694 6.70916 1.96028L2.32108 5.47744C1.69134 5.9799 1.30947 6.9848 1.44346 7.77533L2.28758 12.8267C2.48186 13.9588 3.53366 14.8499 4.67926 14.8499L11.7806 14.8499C12.9128 14.8499 13.9847 13.9387 14.179 12.82L15.0231 7.76863C15.1437 6.9848 14.7618 5.9799 14.1455 5.47744ZM8.73237 12.1701C8.73237 12.4448 8.5046 12.6726 8.22992 12.6726C7.95525 12.6726 7.72747 12.4448 7.72747 12.1701L7.72747 10.1603C7.72747 9.88563 7.95525 9.65785 8.22992 9.65785C8.5046 9.65785 8.73237 9.88563 8.73237 10.1603V12.1701Z" fill="#4FAF5A"/>
</g>
</g>
<defs>
<filter id="filter0_d_0_1" x="-119" y="-660" width="486.968" height="880.118" filterUnits="userSpaceOnUse" color-interpolation-filters="sRGB">
<feFlood flood-opacity="0" result="BackgroundImageFix"/>
<feColorMatrix in="SourceAlpha" type="matrix" values="0 0 0 0 0 0 0 0 0 0 0 0 0 0 0 0 0 0 127 0" result="hardAlpha"/>
<feOffset dy="78.8"/>
<feGaussianBlur stdDeviation="38"/>
<feComposite in2="hardAlpha" operator="out"/>
<feColorMatrix type="matrix" values="0 0 0 0 0.431373 0 0 0 0 0.431373 0 0 0 0 0.431373 0 0 0 0.25 0"/>
<feBlend mode="normal" in2="BackgroundImageFix" result="effect1_dropShadow_0_1"/>
<feBlend mode="normal" in="SourceGraphic" in2="effect1_dropShadow_0_1" result="shape"/>
</filter>
<clipPath id="clip0_0_1">
<rect x="-43" y="-660" width="334.968" height="725.318" rx="17.865" fill="white"/>
</clipPath>
</defs>
</svg>
