<svg width="18" height="17" viewBox="0 0 18 17" fill="none" xmlns="http://www.w3.org/2000/svg">
<g id="mdi:bell-notification-outline">
<path id="Vector" d="M13.6754 11.8289L13.6754 8.34526C13.3404 8.41225 13.0054 8.47925 12.6705 8.47925H12.3355L12.3355 12.4989L5.63614 12.4989L5.63614 7.80931C5.63614 5.93349 7.11 4.45962 8.98582 4.45962C9.05282 3.58871 9.45478 2.85178 9.99073 2.24883C9.78975 1.98086 9.38778 1.77988 8.98582 1.77988C8.24889 1.77988 7.64595 2.38282 7.64595 3.11975V3.32073C5.63614 3.92368 4.29626 5.7325 4.29626 7.80931L4.29626 11.8289L2.95639 13.1688L2.95639 13.8387L15.0153 13.8387L15.0153 13.1688L13.6754 11.8289ZM7.64595 14.5087C7.64595 15.2456 8.24889 15.8486 8.98582 15.8486C9.72275 15.8486 10.3257 15.2456 10.3257 14.5087H7.64595Z" fill="#FFFEFE"/>
<circle id="Dot" cx="13.0054" cy="3.56638" r="2.23312" fill="#C01212"/>
</g>
</svg>
