<svg width="17" height="17" viewBox="0 0 17 17" fill="none" xmlns="http://www.w3.org/2000/svg">
<g id="Frame">
<path id="Vector" d="M8.36798 15.4227C4.66802 15.4227 1.66861 12.4233 1.66861 8.72336C1.66861 5.02339 4.66802 2.02399 8.36798 2.02399C12.0679 2.02399 15.0673 5.02339 15.0673 8.72336C15.0673 12.4233 12.0679 15.4227 8.36798 15.4227ZM8.36798 14.0829C11.328 14.0829 13.7275 11.6833 13.7275 8.72336C13.7275 5.76339 11.328 3.36386 8.36798 3.36386C5.40801 3.36386 3.00848 5.76339 3.00848 8.72336C3.00848 11.6833 5.40801 14.0829 8.36798 14.0829ZM5.01829 8.72336L6.35817 8.72336C6.35817 9.83337 7.25796 10.7332 8.36798 10.7332C9.478 10.7332 10.3778 9.83337 10.3778 8.72336H11.7177C11.7177 10.5733 10.2179 12.073 8.36798 12.073C6.518 12.073 5.01829 10.5733 5.01829 8.72336Z" fill="#878787"/>
</g>
</svg>
