<svg width="17" height="18" viewBox="0 0 17 18" fill="none" xmlns="http://www.w3.org/2000/svg">
<g id="ri:search-line">
<path id="Vector" d="M12.8095 12.0804L15.6788 14.9491L14.7309 15.897L11.8622 13.0277C10.7948 13.8834 9.46717 14.3488 8.09916 14.3468C4.77091 14.3468 2.06973 11.6456 2.06973 8.31738C2.06973 4.98913 4.77091 2.28795 8.09916 2.28795C11.4274 2.28795 14.1286 4.98913 14.1286 8.31738C14.1305 9.68539 13.6651 11.013 12.8095 12.0804ZM11.4656 11.5833C12.3158 10.709 12.7906 9.53695 12.7887 8.31738C12.7887 5.72673 10.6898 3.62782 8.09916 3.62782C5.50851 3.62782 3.4096 5.72673 3.4096 8.31738C3.4096 10.908 5.50851 13.0069 8.09916 13.0069C9.31873 13.0089 10.4908 12.534 11.3651 11.6838L11.4656 11.5833Z" fill="#878787"/>
</g>
</svg>
